<svg width="45" height="45" viewBox="0 0 45 45" fill="none" xmlns="http://www.w3.org/2000/svg">
<path d="M32.3289 24.0951H24.095V32.329C28.3103 31.6474 31.6473 28.3103 32.3289 24.0951Z" fill="#2B2A5E"/>
<path d="M24.095 12.6713V20.905H32.3289C31.6473 16.6897 28.3103 13.3528 24.095 12.6713Z" fill="#2B2A5E"/>
<path d="M35.5502 24.095C34.8241 30.0719 30.0719 34.8241 24.095 35.5503V45C35.2645 44.2159 44.2159 35.2644 45 24.095H35.5502Z" fill="#2B2A5E"/>
<path d="M24.095 0.000976562V9.45071C30.0719 10.1769 34.824 14.929 35.5502 20.9058H44.9999C44.2158 9.73653 35.2644 0.785137 24.095 0.000976562Z" fill="#2B2A5E"/>
<path d="M0 20.9059H9.44972C10.1759 14.929 14.928 10.177 20.9049 9.4508V0.000976562C9.73554 0.785137 0.784159 9.73653 0 20.9059Z" fill="#2B2A5E"/>
<path d="M12.6711 20.905H20.9049V12.6713C16.6897 13.3529 13.3527 16.6898 12.6711 20.905Z" fill="#2B2A5E"/>
<path d="M9.44972 24.095H0C0.784159 35.2644 9.73554 44.2159 20.9049 45V35.5503C14.9281 34.8242 10.1759 30.0719 9.44972 24.095Z" fill="#2B2A5E"/>
<path d="M12.6711 24.095C13.3527 28.3103 16.6896 31.6473 20.9049 32.3289V24.095H12.6711Z" fill="#2B2A5E"/>
</svg>
