<svg width="28" height="24" viewBox="0 0 28 24" fill="none" xmlns="http://www.w3.org/2000/svg">
<g filter="url(#filter0_d)">
<path d="M5.65977 8.94225H22.3402C23.0277 8.94225 23.5851 8.38494 23.5851 7.69744C23.5851 7.00994 23.0277 6.45264 22.3402 6.45264H5.65977C4.97227 6.45264 4.41496 7.00994 4.41496 7.69744C4.41492 8.38494 4.97227 8.94225 5.65977 8.94225V8.94225Z" fill="#2B2A5E" fill-opacity="0.5"/>
<path d="M15.2448 3.76764C14.8815 3.76764 14.5859 4.06319 14.5859 4.42651V5.28069H19.6851V4.42651C19.6851 4.06319 19.3896 3.76764 19.0263 3.76764H15.2448Z" fill="#2B2A5E" fill-opacity="0.5"/>
<path d="M7.14296 4.42656C7.14296 3.41707 7.96421 2.59582 8.97371 2.59582H12.7552C13.2355 2.59582 13.673 2.78207 14 3.08582C14.3269 2.78207 14.7644 2.59582 15.2448 2.59582H19.0262C20.0357 2.59582 20.8569 3.41707 20.8569 4.42656V5.28074H22.7589V1.2448C22.7589 0.557305 22.2015 0 21.5141 0H6.48589C5.79839 0 5.24109 0.557305 5.24109 1.2448V5.28074H7.14296V4.42656Z" fill="#2B2A5E" fill-opacity="0.5"/>
<path d="M8.97375 3.76764C8.61043 3.76764 8.31488 4.06319 8.31488 4.42651V5.28069H13.4141V4.42651C13.4141 4.06319 13.1185 3.76764 12.7552 3.76764H8.97375Z" fill="#2B2A5E" fill-opacity="0.5"/>
<path d="M4 10.1141V15.5054H5.17188V13.3688H22.8281V15.5054H24V10.1141H4Z" fill="#2B2A5E" fill-opacity="0.5"/>
</g>
<defs>
<filter id="filter0_d" x="0" y="0" width="28" height="23.5054" filterUnits="userSpaceOnUse" color-interpolation-filters="sRGB">
<feFlood flood-opacity="0" result="BackgroundImageFix"/>
<feColorMatrix in="SourceAlpha" type="matrix" values="0 0 0 0 0 0 0 0 0 0 0 0 0 0 0 0 0 0 127 0"/>
<feOffset dy="4"/>
<feGaussianBlur stdDeviation="2"/>
<feColorMatrix type="matrix" values="0 0 0 0 0 0 0 0 0 0 0 0 0 0 0 0 0 0 0.25 0"/>
<feBlend mode="normal" in2="BackgroundImageFix" result="effect1_dropShadow"/>
<feBlend mode="normal" in="SourceGraphic" in2="effect1_dropShadow" result="shape"/>
</filter>
</defs>
</svg>
