<svg width="45" height="45" viewBox="0 0 45 45" fill="none" xmlns="http://www.w3.org/2000/svg">
<path d="M41.1793 26.945C40.8154 26.0451 39.7908 25.6101 38.8908 25.9742C37.9907 26.338 37.556 27.3626 37.9199 28.2627L39.9902 33.3837L33.8415 30.6732C33.3964 30.4771 32.8899 30.474 32.4426 30.6649C30.3413 31.5615 28.0902 32.016 25.752 32.016C16.3413 32.016 10.0196 24.6477 10.0196 17.7658C10.0196 9.90824 17.0771 3.51562 25.752 3.51562C34.4269 3.51562 41.4844 9.90824 41.4844 17.7658C41.4844 18.3789 41.4272 19.1129 41.3278 19.7797C41.1846 20.7399 41.8468 21.6343 42.807 21.7776C43.7673 21.9212 44.6618 21.2586 44.805 20.2984C44.9307 19.4555 45 18.556 45 17.7658C45 12.9907 42.978 8.51026 39.3062 5.14977C35.6779 1.82891 30.8642 0 25.752 0C20.6397 0 15.8261 1.82891 12.1978 5.14968C8.91664 8.15272 6.95422 12.0505 6.57357 16.2533C2.44649 18.9864 5.86064e-05 23.3659 5.86064e-05 28.0832C5.86064e-05 31.03 0.928446 33.826 2.69566 36.2321L0.128203 42.5833C-0.139951 43.2465 0.020625 44.0061 0.534345 44.5041C0.86912 44.8288 1.31024 45 1.75822 45C1.99755 44.9999 2.23889 44.9511 2.46688 44.8506L9.86981 41.5872C11.732 42.2804 13.7005 42.6314 15.7324 42.6314C15.7763 42.6314 15.8195 42.6279 15.8626 42.6248C18.8014 42.6025 21.6585 41.8295 24.1329 40.3829C26.3494 39.0871 28.1726 37.307 29.4508 35.2047C30.6987 34.9806 31.9185 34.642 33.1023 34.1895L42.5331 38.3467C42.7612 38.4472 43.0024 38.4961 43.2417 38.4961C43.6897 38.496 44.1309 38.3248 44.4657 38.0002C44.9794 37.5022 45.14 36.7427 44.8719 36.0794L41.1793 26.945ZM15.7325 39.1113C15.7086 39.1113 15.6852 39.1139 15.6614 39.1149C13.8665 39.1057 12.1389 38.7529 10.5255 38.0646C10.0782 37.8736 9.57169 37.8767 9.12661 38.0729L5.01008 39.8875L6.33802 36.6026C6.5835 35.9954 6.47091 35.3019 6.04605 34.8035C4.39063 32.8614 3.51568 30.5376 3.51568 28.0832C3.51568 25.2741 4.69737 22.6125 6.7649 20.5944C7.40861 24.1034 9.22487 27.4601 11.9647 30.097C15.374 33.3782 19.8837 35.2791 24.7533 35.508C22.4671 37.7584 19.1954 39.1113 15.7325 39.1113Z" fill="#2B2A5E"/>
<path d="M25.6638 19.5996C26.6346 19.5996 27.4216 18.8126 27.4216 17.8418C27.4216 16.871 26.6346 16.084 25.6638 16.084C24.693 16.084 23.906 16.871 23.906 17.8418C23.906 18.8126 24.693 19.5996 25.6638 19.5996Z" fill="#2B2A5E"/>
<path d="M32.695 19.5996C33.6658 19.5996 34.4528 18.8126 34.4528 17.8418C34.4528 16.871 33.6658 16.084 32.695 16.084C31.7242 16.084 30.9372 16.871 30.9372 17.8418C30.9372 18.8126 31.7242 19.5996 32.695 19.5996Z" fill="#2B2A5E"/>
<path d="M18.6325 19.5996C19.6033 19.5996 20.3903 18.8126 20.3903 17.8418C20.3903 16.871 19.6033 16.084 18.6325 16.084C17.6617 16.084 16.8747 16.871 16.8747 17.8418C16.8747 18.8126 17.6617 19.5996 18.6325 19.5996Z" fill="#2B2A5E"/>
</svg>
