<svg width="45" height="45" viewBox="0 0 45 45" fill="none" xmlns="http://www.w3.org/2000/svg">
<path d="M44.8351 13.953C44.5049 12.7207 43.7146 11.6905 42.6096 11.0526L37.0186 7.8246C36.5983 7.58202 36.0608 7.7259 35.818 8.14626C35.5753 8.56663 35.7193 9.10407 36.1397 9.34681L41.7307 12.5748C42.4291 12.9781 42.9285 13.629 43.1372 14.4078C43.3459 15.1868 43.2388 16.0003 42.8356 16.6986L38.3987 24.3838V18.1175C38.3987 16.5773 37.1456 15.3242 35.6053 15.3242C35.2396 15.3242 34.8902 15.3948 34.5698 15.5231V13.1366C34.5698 11.5964 33.3167 10.3433 31.7765 10.3433C31.3947 10.3433 31.0307 10.4202 30.6989 10.5595C30.469 9.24917 29.3227 8.25032 27.9475 8.25032C26.5723 8.25032 25.4261 9.24917 25.1962 10.5595C24.8644 10.4203 24.5003 10.3433 24.1186 10.3433C22.5784 10.3433 21.3253 11.5964 21.3253 13.1366L21.3251 23.7724L20.3497 22.2496C19.5827 21.0522 18.1018 20.5206 16.7485 20.9574C15.1313 21.4792 14.2304 23.1676 14.6974 24.8014L14.7705 25.0571C15.1543 26.3999 15.6777 27.6945 16.3251 28.9208L10.2698 25.4248C8.82823 24.5925 8.33255 22.7425 9.16484 21.3009L19.5755 3.26928C19.9787 2.57092 20.6297 2.07137 21.4085 1.86264C22.1874 1.65381 23.001 1.76104 23.6993 2.16427L29.2907 5.39239C29.7111 5.63522 30.2486 5.49117 30.4912 5.07072C30.734 4.65035 30.5899 4.11292 30.1695 3.87017L24.5782 0.64205C23.4732 0.00416048 22.1859 -0.165463 20.9535 0.164819C19.7212 0.495014 18.6911 1.28548 18.0532 2.3904L17.4978 3.35225C15.3504 2.73202 13.13 2.39418 10.8867 2.34901C10.8807 2.34892 10.8747 2.34883 10.8687 2.34883C10.3916 2.34883 10 2.73079 9.99036 3.21004C9.98061 3.69527 10.3661 4.09666 10.8514 4.10641C12.7956 4.14552 14.7211 4.4207 16.5906 4.92377L10.7698 15.0056C9.50672 14.5714 8.18877 14.3387 6.84208 14.3147C6.35571 14.3049 5.95635 14.6924 5.94765 15.1776C5.93895 15.663 6.32539 16.0634 6.8107 16.0721C7.85691 16.0908 8.88272 16.2553 9.8718 16.5611L7.64282 20.4219C6.32592 22.7029 7.11022 25.6301 9.39115 26.947L18.4808 32.1949C19.5298 33.4958 20.7392 34.6694 22.0851 35.6786V44.121C22.0851 44.6063 22.4786 44.9998 22.964 44.9998C23.4494 44.9998 23.8428 44.6063 23.8428 44.121V35.2331C23.8428 34.9494 23.7058 34.683 23.475 34.5181C20.094 32.1015 17.6029 28.5699 16.4607 24.574L16.3876 24.3183C16.1824 23.6008 16.5781 22.8593 17.2882 22.6303C17.8823 22.4387 18.5329 22.6719 18.8697 23.1977L21.4641 27.2478C21.6746 27.5763 22.0766 27.7268 22.4511 27.6172C22.8256 27.5076 23.083 27.164 23.083 26.7737V23.1336C23.083 23.1278 23.0831 23.122 23.0831 23.1162V13.1367C23.0831 12.5657 23.5477 12.1011 24.1187 12.1011C24.6897 12.1011 25.1543 12.5657 25.1543 13.1367V21.3905C25.1543 21.8758 25.5477 22.2694 26.0331 22.2694C26.5185 22.2694 26.912 21.8758 26.912 21.3905V11.0437C26.912 10.4727 27.3766 10.0081 27.9476 10.0081C28.5187 10.0081 28.9832 10.4727 28.9832 11.0437V21.3905C28.9832 21.8758 29.3766 22.2694 29.862 22.2694C30.3474 22.2694 30.7409 21.8758 30.7409 21.3905V13.1367C30.7409 12.5657 31.2055 12.1011 31.7765 12.1011C32.3475 12.1011 32.812 12.5657 32.812 13.1367V21.3905C32.812 21.8758 33.2055 22.2694 33.6909 22.2694C34.1763 22.2694 34.5698 21.8758 34.5698 21.3905V18.1177C34.5698 17.5467 35.0343 17.0821 35.6053 17.0821C36.1763 17.0821 36.6409 17.5467 36.6409 18.1177V25.3218C36.6409 28.774 35.2389 32.1519 32.7945 34.5893C32.6291 34.7542 32.5362 34.9782 32.5362 35.2117V44.1211C32.5362 44.6064 32.9296 45 33.415 45C33.9004 45 34.2939 44.6064 34.2939 44.1211V35.5702C36.2041 33.5706 37.4932 31.1287 38.064 28.479L44.3578 17.5777C44.996 16.4727 45.1654 15.1854 44.8351 13.953V13.953Z" fill="#2B2A5E"/>
<path d="M0.87967 5.98687C0.991813 5.98687 1.10589 5.96525 1.21592 5.91955C2.98368 5.18674 4.84214 4.66793 6.7397 4.37747C7.21956 4.30408 7.54897 3.85559 7.47549 3.37581C7.40211 2.89594 6.9538 2.56706 6.47385 2.64001C4.43654 2.95175 2.44107 3.50887 0.542799 4.29591C0.0944004 4.48179 -0.118374 4.99593 0.067507 5.44434C0.207687 5.7827 0.534802 5.98687 0.87967 5.98687Z" fill="#2B2A5E"/>
<path d="M0.880471 11.7177C0.991911 11.7177 1.1052 11.6964 1.21462 11.6513C3.95757 10.5225 6.96971 10.1179 9.92544 10.4813C10.4073 10.5414 10.8458 10.1982 10.905 9.71636C10.9643 9.23465 10.6218 8.796 10.14 8.73676C6.88508 8.33626 3.56726 8.78229 0.545622 10.0259C0.0967833 10.2106 -0.117397 10.7242 0.0673411 11.1731C0.207081 11.5125 0.534811 11.7177 0.880471 11.7177V11.7177Z" fill="#2B2A5E"/>
<path d="M2.18505 15.1014C1.59155 15.3201 1.00965 15.5856 0.455437 15.8905C0.0301524 16.1245 -0.124968 16.6588 0.108987 17.0841C0.269029 17.3751 0.56969 17.5396 0.879843 17.5396C1.02301 17.5396 1.16838 17.5045 1.30267 17.4307C1.78016 17.168 2.28155 16.9393 2.79296 16.7508C3.24839 16.5829 3.48156 16.0776 3.31361 15.6221C3.14574 15.1668 2.64039 14.9334 2.18505 15.1014V15.1014Z" fill="#2B2A5E"/>
<path d="M33.1548 7.48771C33.386 7.48771 33.6119 7.39367 33.7762 7.23019C33.9397 7.06671 34.0338 6.83995 34.0338 6.6088C34.0338 6.37676 33.9397 6.15 33.7762 5.98653C33.6119 5.82314 33.3859 5.729 33.1548 5.729C32.9237 5.729 32.6969 5.82305 32.5335 5.98653C32.3691 6.15088 32.2759 6.37676 32.2759 6.6088C32.2759 6.83995 32.3691 7.06583 32.5335 7.23019C32.6969 7.39367 32.9227 7.48771 33.1548 7.48771V7.48771Z" fill="#2B2A5E"/>
</svg>
