<svg width="20" height="15" viewBox="0 0 20 15" fill="none" xmlns="http://www.w3.org/2000/svg">
<path d="M5.55365 12.055H4.55644V11.4793C4.55644 11.2183 4.23204 11.006 3.83328 11.006H2.22653C1.82777 11.006 1.50337 11.2183 1.50337 11.4793V12.055H0.506212C0.226669 12.055 0 12.2033 0 12.3863V14.6687C0 14.8516 0.226669 14.9999 0.506212 14.9999H5.5536C5.83314 14.9999 6.05981 14.8516 6.05981 14.6687V12.3863C6.05981 12.2033 5.83319 12.055 5.55365 12.055ZM3.77011 12.055H3.77006H2.28979V11.5206H3.77011V12.055Z" fill="#2B2A5E" fill-opacity="0.5"/>
<path d="M10.1719 2.4692C11.2139 2.4692 12.0586 1.91645 12.0586 1.2346C12.0586 0.552749 11.2139 0 10.1719 0C9.12996 0 8.28528 0.552749 8.28528 1.2346C8.28528 1.91645 9.12996 2.4692 10.1719 2.4692Z" fill="#2B2A5E" fill-opacity="0.5"/>
<path d="M19.454 9.55557H19.0481V7.9734H19.3813C19.4807 7.9734 19.5613 7.92063 19.5613 7.85556V7.46281C19.5613 7.39774 19.4807 7.34498 19.3813 7.34498H17.0159C17.1497 7.09059 17.0069 6.8002 16.645 6.64927L14.7766 5.87011L14.7618 4.26535C14.7559 3.49194 13.7895 2.86273 12.6076 2.86273C12.1017 2.86273 8.22815 2.86273 7.72055 2.86273C6.53863 2.86273 5.57227 3.49194 5.56632 4.26535L5.5327 8.64172C5.53014 8.97072 5.93567 9.23876 6.43839 9.2404C6.44 9.2404 6.44152 9.2404 6.44304 9.2404C6.94362 9.2404 7.35075 8.97564 7.35326 8.64772L7.38688 4.27136C7.38737 4.2079 7.46621 4.15672 7.5631 4.15686C7.66002 4.15704 7.73837 4.20848 7.73837 4.27188L7.73877 14.2852C7.73877 14.68 8.22784 15 8.83115 15C9.43447 15 9.92354 14.68 9.92354 14.2852V8.5714H10.3951V14.2851C10.3951 14.6799 10.8842 15 11.4875 15C12.0908 15 12.5799 14.6799 12.5799 14.2851C12.5799 4.95658 12.5606 10.0691 12.5601 4.27595C12.5601 4.2079 12.6435 4.15241 12.7475 4.15127C12.8515 4.15015 12.9377 4.20383 12.9411 4.27185C12.9411 4.27185 12.9411 4.27188 12.9411 4.27191L12.9589 6.20167C12.9607 6.4039 13.1192 6.59173 13.3799 6.70042L15.4385 7.55887V7.85551C15.4385 7.92057 15.5191 7.97334 15.6185 7.97334H15.9517V9.55552H15.5458C15.2442 9.55552 14.9997 9.71553 14.9997 9.91291V14.0127C14.9997 14.2101 15.2442 14.3701 15.5458 14.3701H15.9517V14.7562C15.9517 14.8908 16.1185 15 16.3242 15C16.5299 15 16.6968 14.8908 16.6968 14.7562V14.3701H18.303V14.7562C18.303 14.8908 18.4698 15 18.6755 15C18.8812 15 19.048 14.8908 19.048 14.7562V14.3701H19.4539C19.7555 14.3701 20 14.2101 20 14.0127V9.91294C20.0001 9.71556 19.7557 9.55557 19.454 9.55557ZM18.303 9.55557H16.697V7.9734H18.303V9.55557Z" fill="#2B2A5E" fill-opacity="0.5"/>
</svg>
