<svg width="45" height="45" viewBox="0 0 45 45" fill="none" xmlns="http://www.w3.org/2000/svg">
<path d="M43.292 40.1453C38.1636 40.1453 32.4983 40.1453 30.9 40.1453V37.3445H42.3065C41.3486 34.6217 40.5023 32.2164 40.5 32.2095C39.5436 32.2095 36.1917 32.2095 31.8929 32.2095C29.3097 34.5108 26.9212 36.6269 24.7816 39.3652L22.4998 42.2853L20.2183 39.365C18.0594 36.6019 15.619 34.4486 13.1075 32.2095C8.14006 32.2095 4.50444 32.2095 4.50002 32.2095C4.48514 32.252 3.64419 34.642 2.69346 37.3445H14.1V40.1453C11.8981 40.1453 6.33868 40.1453 1.70799 40.1453C0.802926 42.7175 0.0222172 44.9367 0 45H45C44.9782 44.9377 44.1973 42.718 43.292 40.1453V40.1453Z" fill="#2B2A5E"/>
<path d="M22.5 37.8112C29.3078 29.0987 39 25.7372 39 15.4045C39 6.57729 31.9549 0 22.5 0C13.0481 0 5.99996 6.5773 5.99996 15.4046C5.99996 25.7359 15.6953 29.1016 22.5 37.8112V37.8112ZM22.5 11.7822C24.9789 11.7822 27 13.669 27 15.9834C27 18.2969 24.9789 20.1847 22.5 20.1847C20.0209 20.1847 18 18.2969 18 15.9834C18 13.669 20.0209 11.7822 22.5 11.7822Z" fill="#2B2A5E"/>
</svg>
