<svg width="10" height="10" viewBox="0 0 10 10" fill="none" xmlns="http://www.w3.org/2000/svg">
<path d="M6.43536 4.22184L7.79797 3.54893L9.16502 4.21289L8.9451 2.71097L9.99999 1.618L8.50145 1.36271L7.78637 0.0232544L7.08011 1.36738L5.58331 1.63252L6.64535 2.71853L6.43536 4.22184Z" fill="white"/>
<path d="M6.7639 7.06128C4.64428 7.06128 2.92601 5.34564 2.92601 3.22926C2.92601 1.87282 3.63188 0.680997 4.69685 0L4.02056 0.132774C1.66647 0.594943 -0.0243045 2.67149 0.000264313 5.0703C0.0138985 6.4006 0.545571 7.64599 1.49732 8.57705C2.43659 9.49588 3.67399 10 4.98688 10C5.00433 10 5.02185 9.99992 5.03934 9.99973C6.22154 9.98766 7.3637 9.55555 8.25546 8.78301C9.13686 8.01941 9.72497 6.96888 9.91145 5.82495L9.99812 5.29316C9.31606 6.3565 8.12242 7.06128 6.7639 7.06128Z" fill="white"/>
</svg>
