<svg width="20" height="15" viewBox="0 0 20 15" fill="none" xmlns="http://www.w3.org/2000/svg">
<path d="M12.8707 6.33279L15.5959 5.32342L18.33 6.31937L17.8902 4.06649L20 2.42704L17.0029 2.0441L15.5727 0.0349121L14.1602 2.0511L11.1666 2.4488L13.2907 4.07783L12.8707 6.33279Z" fill="#2B2A5E" fill-opacity="0.5"/>
<path d="M13.5278 10.5919C9.28857 10.5919 5.85202 8.01845 5.85202 4.8439C5.85202 2.80922 7.26375 1.0215 9.39369 0L8.04111 0.199161C3.33293 0.892414 -0.0486091 4.00723 0.000528625 7.60545C0.0277969 9.6009 1.09114 11.469 2.99464 12.8656C4.87318 14.2438 7.34798 15 9.97376 15C10.0087 15 10.0437 14.9999 10.0787 14.9996C12.4431 14.9815 14.7274 14.3333 16.5109 13.1745C18.2737 12.0291 19.4499 10.4533 19.8229 8.73743L19.9962 7.93973C18.6321 9.53475 16.2448 10.5919 13.5278 10.5919Z" fill="#2B2A5E" fill-opacity="0.5"/>
</svg>
