<svg width="25" height="20" viewBox="0 0 25 20" fill="none" xmlns="http://www.w3.org/2000/svg">
<path d="M14.1975 0C8.24267 0 3.40019 4.48748 3.40019 10V10.0331L1.26215 7.05243C1.05294 6.75957 0.624308 6.67926 0.30794 6.87293C-0.00842883 7.0666 -0.0951751 7.46339 0.114036 7.75626L3.21649 12.0784C3.32875 12.2343 3.50735 12.3335 3.70635 12.3571C3.73697 12.3618 3.76248 12.3618 3.7931 12.3618C3.96149 12.3618 4.12477 12.3051 4.25234 12.1965L8.56414 8.6018C8.84479 8.36561 8.8703 7.9641 8.61517 7.69957C8.36003 7.43977 7.9263 7.41615 7.64055 7.65234L4.77792 10.0472V10C4.77792 5.18658 9.00297 1.27539 14.1975 1.27539C19.3921 1.27539 23.6223 5.18658 23.6223 10C23.6223 14.8134 19.3972 18.7246 14.2026 18.7246C11.687 18.7246 9.31934 17.8177 7.5436 16.1691C7.27315 15.9188 6.83942 15.9188 6.56898 16.1691C6.29853 16.4195 6.29853 16.821 6.56898 17.0713C8.61006 18.9608 11.3196 20 14.2026 20C20.1524 20 25 15.5172 25 10C25 4.48276 20.1524 0 14.1975 0Z" fill="#2B2A5E"/>
</svg>
