<svg width="20" height="15" viewBox="0 0 20 15" fill="none" xmlns="http://www.w3.org/2000/svg">
<path d="M19.4444 13.2611L11.5273 7.09203V6.63417C13.211 6.13907 14.3514 4.86718 14.3514 3.42549C14.3514 1.53664 12.3994 0 10.0001 0C7.60066 0 5.64867 1.53668 5.64867 3.42549C5.64867 4.08845 6.3338 4.6278 7.17595 4.6278C8.01815 4.6278 8.70324 4.08845 8.70324 3.42549C8.70324 2.86256 9.28505 2.40461 10.0001 2.40461C10.7152 2.40461 11.2969 2.86259 11.2969 3.42549C11.2969 3.98842 10.7151 4.44638 10.0001 4.44638C9.1579 4.44638 8.47281 4.98572 8.47281 5.64868V7.092L0.553521 13.2626C-0.120515 13.7932 -0.0352835 14.2256 0.0754933 14.4361C0.18627 14.6467 0.514421 14.9999 1.46755 14.9999L18.5325 15C19.4857 15 19.8138 14.6468 19.9246 14.4362C20.0354 14.2257 20.1206 13.7932 19.4444 13.2611V13.2611ZM13.8807 12.4655H6.11928L10.0001 9.41051L13.8807 12.4655Z" fill="#2B2A5E" fill-opacity="0.5"/>
</svg>
