<svg width="40" height="40" viewBox="0 0 40 40" fill="none" xmlns="http://www.w3.org/2000/svg">
<path d="M19.9997 0C8.95428 0 0 8.95449 0 19.9998C0 31.0448 8.95428 40 19.9997 40C31.0451 40 40 31.0448 40 19.9998C40 8.95422 31.0451 0 19.9997 0ZM20.0606 29.4354V29.4351H19.9385H11.3954C11.3954 23.1876 16.8824 23.189 18.1 21.5554L18.2394 20.8105C16.5287 19.9435 15.3211 17.8534 15.3211 15.4088C15.3211 12.1883 17.416 9.57703 19.9997 9.57703C22.5833 9.57703 24.6783 12.1883 24.6783 15.4088C24.6783 17.8326 23.4921 19.9097 21.8042 20.7903L21.9629 21.6369C23.2988 23.1913 28.6033 23.2926 28.6033 29.4354H20.0606V29.4354Z" fill="black"/>
</svg>
